<svg width="24" height="24" viewBox="0 0 24 24" fill="none" xmlns="http://www.w3.org/2000/svg">
<path d="M12.0118 20.6669C12.009 20.6686 12.0062 20.6702 12.0033 20.6719C11.9999 20.6699 11.9964 20.6678 11.993 20.6658C11.6741 20.4774 11.2161 20.1999 10.6654 19.8462C9.56206 19.1376 8.09621 18.1297 6.63532 16.9279C5.1695 15.722 3.73847 14.3451 2.68148 12.9034C1.61629 11.4504 1 10.026 1 8.70412C1 5.6511 3.47496 3.1761 6.52802 3.1761V3.17613L6.53582 3.17607C8.40135 3.16152 10.1454 4.09983 11.1613 5.6646L11.9951 6.94902L12.8359 5.66908C13.8602 4.10949 15.6024 3.17199 17.4683 3.17609C20.5165 3.1916 22.9839 5.65853 23 8.7066C22.9992 10.0546 22.3805 11.4911 21.3177 12.945C20.2615 14.3899 18.8315 15.763 17.3666 16.9623C15.9065 18.1576 14.4414 19.1562 13.3386 19.8571C12.7882 20.207 12.3305 20.4811 12.0118 20.6669Z" stroke="black" stroke-width="2"/>
</svg>
